<?xml version="1.0" encoding="utf-8"?>
<svg viewBox="-34 -27 958 1142" xmlns="http://www.w3.org/2000/svg">
  <g transform="matrix(0.10000000149, 0, 0, -0.100009001791, -8083.838354653358, -14168.966755367814)" fill="#ffcc00" stroke="none" style="transform-origin: 8083.84px 14169px;">
    <path d="M12665 14156 c-22 -7 -52 -20 -67 -30 -16 -10 -29 -13 -32 -7 -4 5 -30 15 -60 22 -45 10 -61 9 -105 -6 -42 -14 -57 -15 -87 -5 -20 7 -64 10 -99 8 -49 -3 -72 -10 -105 -33 -78 -54 -111 -66 -215 -75 -44 -3 -94 -14 -111 -23 -37 -19 -83 -71 -96 -107 -5 -15 -31 -37 -61 -55 -44 -25 -57 -40 -82 -92 -25 -51 -36 -65 -64 -74 -41 -14 -118 -88 -127 -123 -3 -14 -18 -29 -35 -37 -63 -26 -129 -128 -129 -201 l0 -25 -132 -6 c-370 -17 -693 -146 -954 -380 -265 -237 -408 -493 -488 -867 -4 -18 -23 -36 -69 -62 -188 -108 -334 -296 -398 -513 -41 -140 -36 -364 11 -501 l19 -54 -42 -11 c-26 -7 -56 -26 -79 -50 -22 -23 -47 -39 -60 -39 -57 0 -113 -61 -122 -134 -2 -19 -12 -45 -20 -58 -25 -35 -20 -106 10 -149 14 -21 24 -47 22 -61 -3 -21 -7 -23 -59 -20 -36 2 -67 -2 -85 -11 -18 -9 -36 -11 -49 -6 -11 4 -39 8 -62 8 -35 1 -50 -5 -80 -33 -31 -27 -47 -34 -82 -34 -24 -1 -49 -6 -54 -11 -6 -6 -24 -11 -39 -11 -36 0 -89 -22 -107 -43 -7 -10 -28 -17 -45 -17 -65 0 -136 -76 -136 -146 0 -49 37 -108 83 -134 23 -13 56 -34 73 -47 17 -13 34 -23 37 -23 4 0 25 -18 46 -39 43 -43 98 -59 145 -42 21 8 34 7 56 -4 32 -17 97 -20 119 -6 10 6 25 4 42 -5 33 -17 112 -19 141 -3 15 8 28 7 52 -4 96 -47 216 -69 256 -47 15 8 29 5 57 -10 49 -26 117 -26 168 0 53 27 73 20 47 -18 -11 -15 -24 -43 -29 -61 -8 -30 -15 -35 -55 -46 -61 -15 -118 -55 -148 -104 -17 -27 -35 -42 -54 -47 -43 -10 -112 -79 -132 -132 -11 -28 -35 -62 -60 -84 -55 -50 -88 -125 -82 -192 l4 -51 -130 2 c-109 2 -137 -1 -166 -16 -25 -12 -45 -15 -68 -10 -87 18 -178 -40 -202 -131 -7 -27 -20 -45 -38 -54 -61 -32 -112 -112 -112 -177 0 -17 -9 -43 -20 -59 -32 -45 -44 -108 -31 -158 16 -57 73 -119 122 -134 27 -7 46 -22 60 -44 12 -20 41 -43 72 -59 46 -22 53 -29 55 -58 3 -41 38 -112 65 -134 16 -13 22 -29 22 -58 1 -38 -2 -41 -50 -65 -91 -46 -134 -143 -105 -244 10 -38 10 -48 -4 -67 -21 -31 -20 -103 1 -140 10 -16 20 -29 24 -29 4 0 5 -17 2 -39 -3 -21 0 -48 6 -59 10 -20 8 -22 -36 -36 l-48 -15 61 0 61 -1 18 -41 c25 -54 66 -82 131 -87 44 -4 53 -8 58 -27 9 -37 79 -92 127 -100 23 -4 56 -16 73 -26 38 -23 106 -25 146 -4 24 12 38 13 73 4 59 -14 121 3 164 46 29 29 38 32 75 28 29 -3 54 2 78 14 34 18 36 18 61 0 55 -39 146 -41 200 -3 13 9 27 16 31 16 4 0 22 -21 39 -47 18 -27 37 -51 43 -55 6 -4 160 -8 341 -8 l330 0 125 -71 c69 -38 179 -100 245 -137 l120 -67 309 -5 310 -5 88 -160 c122 -219 302 -579 380 -760 174 -400 238 -687 238 -1058 0 -497 -142 -806 -435 -943 -250 -116 -654 -216 -1205 -297 -81 -11 -85 -13 -88 -38 -2 -20 2 -28 20 -33 13 -3 1020 -6 2239 -6 2357 0 2257 -2 2247 46 -3 17 -18 20 -157 31 -558 42 -965 179 -1162 390 -107 114 -135 191 -155 413 -22 253 -55 478 -103 687 l-18 81 76 109 c42 60 274 390 516 733 l440 623 5 -994 c4 -875 7 -994 20 -994 13 0 15 26 18 168 l2 167 405 0 405 0 0 -281 c0 -262 1 -280 18 -277 16 3 17 76 20 1343 l2 1340 24 -36 c14 -20 42 -44 63 -54 21 -10 53 -31 72 -48 83 -71 178 -75 253 -10 14 13 20 13 46 -1 121 -63 274 -24 354 88 31 44 31 45 79 39 67 -8 111 3 167 41 36 24 65 35 106 39 71 7 141 42 178 88 20 25 44 41 74 49 57 16 127 78 148 132 11 27 17 67 16 112 -1 39 6 95 14 124 25 86 -4 172 -74 220 -22 15 -39 33 -40 41 0 7 20 36 45 63 141 157 69 398 -135 455 -53 14 -59 19 -70 54 -16 48 -71 114 -114 136 -47 24 -105 33 -157 22 -45 -10 -46 -9 -86 30 -26 26 -56 45 -86 53 l-47 12 0 51 c-1 94 -63 180 -150 206 -31 10 -39 16 -34 28 3 9 9 37 11 63 8 66 -25 131 -85 169 -25 16 -44 29 -41 29 2 1 27 2 55 4 66 4 129 39 169 93 16 22 39 44 51 47 39 10 77 49 100 102 13 29 29 56 37 61 7 4 23 22 35 39 12 18 34 34 50 37 39 8 86 49 103 89 7 18 27 50 45 71 44 53 60 115 46 177 -10 44 -9 53 12 92 35 63 40 100 22 162 -12 42 -27 64 -62 95 -52 45 -90 56 -169 48 -41 -4 -57 -2 -66 9 -38 46 -155 58 -196 21 -16 -13 -21 -14 -43 -2 -27 15 -93 18 -123 6 -12 -4 -38 3 -74 21 -60 30 -129 37 -179 18 -21 -8 -37 -7 -66 5 -21 8 -58 15 -82 15 l-43 0 18 78 c36 148 18 290 -53 431 -52 103 -150 207 -251 265 -62 36 -68 42 -64 66 8 39 -10 161 -33 226 -27 78 -75 156 -135 217 l-50 52 -1 160 c-1 234 -39 397 -140 598 -151 304 -415 537 -735 651 l-91 33 -23 57 c-31 76 -64 118 -117 146 -31 16 -52 37 -68 68 -13 24 -34 50 -45 58 -16 11 -22 25 -23 60 -1 25 -9 58 -16 73 -17 32 -90 101 -109 101 -6 1 -25 24 -42 53 -25 43 -40 57 -91 82 -44 21 -67 40 -80 64 -21 39 -67 76 -114 92 -18 7 -49 30 -69 52 -44 49 -101 76 -159 77 -33 0 -52 7 -81 31 -40 32 -116 59 -160 58 -14 0 -44 -6 -66 -13z m152 -77 c24 -12 51 -32 60 -46 15 -22 21 -24 62 -18 58 7 125 -24 159 -75 16 -24 36 -38 64 -47 49 -14 94 -55 108 -99 9 -26 18 -34 54 -43 56 -14 94 -45 116 -94 14 -30 30 -46 62 -61 62 -30 91 -78 84 -138 -5 -44 -3 -48 30 -73 19 -15 45 -47 57 -73 16 -33 30 -48 52 -55 39 -12 101 -72 114 -109 l10 -30 -67 9 c-37 4 -105 8 -152 8 -84 0 -85 0 -85 -25 0 -24 4 -25 75 -32 229 -22 361 -57 524 -141 439 -224 701 -671 684 -1167 l-5 -135 68 -72 c111 -117 162 -247 158 -399 -1 -41 0 -76 2 -78 2 -2 37 -20 76 -41 136 -70 249 -212 288 -361 30 -117 16 -275 -36 -386 -12 -25 -19 -54 -16 -62 8 -21 41 -20 73 1 34 22 99 21 148 -2 36 -17 40 -17 86 -1 64 23 112 13 162 -32 l39 -35 46 23 c43 21 47 22 77 6 17 -9 39 -21 48 -28 14 -10 22 -8 45 14 53 51 102 46 154 -15 l25 -30 47 18 c147 56 257 -102 157 -227 -32 -40 -33 -40 -16 -74 9 -19 16 -53 16 -75 0 -32 -7 -47 -39 -82 -21 -23 -42 -57 -46 -75 -8 -38 -54 -72 -98 -72 -22 0 -31 -7 -42 -34 -8 -19 -31 -47 -50 -62 -26 -19 -35 -34 -35 -56 0 -35 -38 -76 -79 -84 -21 -5 -38 -19 -59 -53 -35 -57 -80 -81 -154 -81 -55 0 -77 -12 -90 -50 -3 -8 -25 -20 -49 -27 -57 -15 -113 -70 -129 -128 -13 -48 -9 -72 15 -81 22 -9 45 14 45 46 0 37 42 86 85 100 115 38 205 -107 125 -200 -48 -57 -36 -85 33 -73 48 7 121 -27 147 -69 30 -50 35 -92 15 -144 -23 -62 -12 -74 63 -67 48 4 61 2 85 -17 15 -12 34 -37 42 -56 16 -38 27 -41 78 -19 51 21 96 19 147 -7 55 -29 79 -62 94 -130 l12 -53 56 -6 c117 -13 189 -85 196 -195 5 -77 -21 -139 -77 -183 -36 -29 -38 -33 -37 -85 1 -55 1 -55 45 -78 76 -41 103 -127 60 -197 -18 -31 -19 -39 -9 -77 29 -102 -35 -201 -140 -219 -27 -5 -46 -18 -75 -52 -46 -55 -86 -73 -164 -73 -47 0 -63 -4 -73 -18 -35 -49 -112 -76 -172 -61 -23 6 -51 13 -62 16 -18 4 -26 -4 -50 -53 -36 -71 -97 -114 -174 -122 -40 -4 -60 1 -105 23 -66 32 -102 80 -120 158 -10 45 -15 52 -36 52 -23 0 -24 -3 -23 -58 1 -46 8 -68 32 -107 l30 -49 -23 -15 c-42 -28 -98 -20 -147 19 -24 19 -57 41 -73 49 -36 17 -56 39 -80 85 l-18 35 29 23 c16 13 50 38 76 56 39 26 75 70 65 79 -1 2 -261 5 -577 8 l-575 5 -3 52 -3 53 348 2 348 3 3 285 2 286 60 59 c33 33 60 65 60 72 0 10 -86 13 -407 15 l-408 3 -3 408 c-1 224 2 407 6 407 5 0 42 -35 83 -77 387 -406 419 -435 419 -389 0 7 -104 129 -232 271 -159 178 -232 266 -234 284 -1 14 -3 222 -3 461 l-2 435 -142 123 -141 123 -118 -2 c-141 -1 -159 -11 -101 -58 21 -16 115 -86 208 -154 l170 -124 3 -344 c1 -209 -1 -339 -7 -334 -55 59 -1171 1311 -1171 1315 1 3 50 46 110 95 105 86 122 107 100 120 -5 3 -201 -64 -435 -149 l-426 -155 -87 -79 c-48 -44 -355 -326 -682 -627 l-595 -547 -295 -145 c-162 -80 -417 -205 -566 -278 -149 -72 -274 -137 -277 -142 -4 -6 -1 -15 6 -21 8 -7 161 44 512 169 275 98 508 182 518 185 16 5 17 -16 15 -383 l-3 -388 -520 -3 c-285 -1 -523 -6 -528 -11 -11 -11 6 -27 88 -87 l65 -48 0 -272 c0 -150 3 -279 6 -288 5 -14 55 -16 451 -16 l444 0 -3 -52 -3 -53 -711 -3 c-679 -2 -712 -3 -716 -20 -3 -10 1 -27 8 -37 8 -10 14 -22 14 -27 0 -12 -57 -38 -85 -38 -34 0 -82 25 -95 50 -14 27 -36 25 -72 -5 -31 -27 -76 -32 -109 -14 -28 14 -56 3 -63 -27 -15 -57 -94 -76 -174 -43 -30 12 -34 12 -42 -2 -16 -29 -66 -43 -99 -29 -16 6 -32 18 -35 26 -4 9 -21 14 -51 14 -61 0 -105 40 -105 94 0 45 -22 58 -66 40 -46 -19 -58 -18 -93 12 -21 18 -31 35 -31 55 0 18 -7 32 -20 39 -35 19 -43 47 -23 80 l17 30 -37 34 c-43 40 -47 67 -12 102 29 29 31 46 9 79 -9 13 -16 44 -16 69 0 76 49 133 123 143 51 7 62 21 48 62 -6 18 -9 51 -6 74 5 38 3 43 -33 74 -43 37 -65 90 -56 134 7 35 -15 59 -54 59 -34 0 -83 38 -100 79 -9 24 -20 31 -53 37 -97 16 -141 125 -78 196 24 28 29 42 29 87 0 66 20 96 88 132 46 24 49 28 54 72 10 82 77 124 154 96 30 -11 38 -11 53 3 35 32 74 40 121 27 33 -9 52 -9 81 0 31 9 47 8 80 -4 40 -14 42 -13 65 12 22 24 24 32 19 97 -5 86 12 126 74 168 32 22 43 37 52 74 15 59 64 110 115 119 28 6 41 15 53 39 35 70 86 105 167 115 l51 6 7 49 c4 28 15 61 26 75 27 37 81 71 111 71 48 0 68 40 31 60 -15 8 -32 7 -63 -1 -52 -15 -81 -13 -120 6 -29 14 -33 14 -70 -12 -50 -35 -104 -37 -146 -5 -36 26 -49 27 -87 7 -38 -20 -52 -19 -99 5 -22 11 -51 20 -66 20 -15 0 -42 12 -59 26 l-31 27 -43 -22 c-54 -26 -72 -26 -115 0 -28 17 -39 19 -58 10 -36 -16 -98 -14 -114 5 -9 11 -22 14 -43 9 -95 -19 -104 -17 -139 38 -10 15 -25 27 -33 27 -9 0 -32 14 -51 30 -18 17 -42 30 -53 30 -27 0 -60 47 -60 85 0 45 48 86 96 83 25 -1 39 5 58 25 20 21 34 27 69 27 27 0 49 6 57 15 16 19 40 19 68 -1 30 -21 48 -13 66 31 17 41 54 59 90 45 13 -5 27 -14 31 -19 10 -18 35 -13 67 14 34 29 56 31 84 10 30 -22 43 -18 86 26 36 37 39 44 29 66 -6 13 -11 35 -11 48 0 13 -11 35 -25 49 -32 32 -32 57 1 95 18 21 23 37 19 52 -18 54 33 105 94 93 27 -6 31 -3 45 29 16 38 59 67 100 67 20 0 34 -14 71 -72 224 -345 653 -485 1036 -337 l80 31 92 -55 c197 -117 247 -132 429 -131 130 1 137 0 142 -20 11 -42 5 -57 -29 -77 -41 -24 -46 -54 -16 -103 11 -17 24 -50 30 -73 12 -43 34 -73 53 -73 22 0 48 -33 48 -60 0 -15 -9 -35 -20 -45 -64 -58 -28 -194 62 -235 31 -14 47 -16 61 -9 25 14 19 53 -10 57 -29 4 -83 66 -83 96 0 12 11 36 25 52 34 40 40 81 19 133 -11 28 -30 51 -55 67 -22 13 -39 32 -39 42 0 10 -9 35 -20 57 -11 21 -19 39 -17 40 1 1 12 7 24 14 36 18 47 71 29 135 -24 83 -22 95 33 145 58 54 72 84 58 124 -12 36 -2 47 61 68 39 13 47 20 47 40 0 29 -29 36 -80 19 -74 -24 -111 -74 -96 -128 8 -27 4 -34 -40 -78 -26 -26 -51 -60 -55 -76 -9 -42 -41 -50 -174 -46 -134 5 -175 18 -320 103 -156 91 -156 91 -193 76 -161 -68 -196 -75 -352 -76 -130 0 -160 3 -225 23 -277 87 -473 289 -551 567 -31 109 -31 285 -1 398 59 218 217 408 438 528 26 14 31 24 43 94 29 175 121 392 233 551 226 320 577 539 963 599 131 21 388 16 500 -9 449 -100 818 -386 1010 -781 30 -60 63 -137 74 -170 21 -64 38 -82 66 -71 23 9 15 50 -36 174 -197 483 -625 828 -1138 918 -109 19 -113 22 -100 83 11 49 39 82 93 111 37 19 51 33 61 63 20 59 58 91 116 99 38 5 47 15 54 59 9 51 56 106 111 129 33 14 42 25 47 50 15 70 112 124 184 102 31 -10 40 -8 64 8 15 11 41 20 58 20 20 0 41 10 62 31 62 61 124 73 197 38 l44 -22 38 22 c48 27 102 27 152 -1 35 -20 41 -21 61 -8 87 56 143 63 214 29z m348 -3627 c-11 -9 -225 -190 -475 -402 l-455 -386 -290 -178 c-159 -98 -346 -214 -415 -256 -112 -70 -310 -176 -310 -167 0 2 282 262 626 578 l626 574 346 127 c191 70 352 127 357 127 6 0 1 -7 -10 -17z m285 -572 c189 -212 382 -428 429 -480 l84 -95 -99 100 c-103 105 -171 175 -553 573 -128 133 -238 242 -245 242 -6 0 -171 -159 -366 -354 l-355 -354 -345 -185 c-190 -101 -460 -246 -600 -321 -252 -135 -260 -139 -644 -276 -214 -77 -391 -139 -392 -137 -2 1 232 117 519 257 521 253 522 254 952 519 l430 265 399 338 400 339 21 -23 c12 -13 177 -196 365 -408z m-34 -72 c191 -200 407 -424 479 -498 72 -74 197 -204 278 -288 l147 -154 0 -854 0 -854 -970 0 -970 0 0 1162 0 1163 342 342 c189 189 344 343 344 343 1 0 158 -163 350 -362z m819 75 l123 -108 1 -425 c0 -424 0 -425 -19 -401 -19 22 -20 40 -20 400 l-1 376 -179 130 c-99 72 -180 131 -180 133 0 1 34 2 76 2 l75 0 124 -107z m-1897 -1575 l-3 -1143 -585 0 -585 0 0 834 0 833 575 309 c316 170 581 309 588 309 10 0 12 -232 10 -1142z m-1218 -324 l0 -825 -37 3 -38 3 -3 811 -2 810 27 11 c16 6 34 11 41 12 9 1 12 -170 12 -825z m-120 -69 l0 -35 -438 0 -438 0 -42 31 c-23 17 -42 33 -42 35 0 2 216 4 480 4 l480 0 0 -35z m4070 0 l-34 -35 -338 0 -338 0 0 35 0 35 372 0 372 0 -34 -35z m-4880 -345 c0 -253 -1 -260 -20 -260 -19 0 -20 7 -20 260 0 253 1 260 20 260 19 0 20 -7 20 -260z m110 0 l0 -260 -30 0 -30 0 0 260 0 260 30 0 30 0 0 -260z m110 0 l0 -260 -35 0 -35 0 0 260 0 260 35 0 35 0 0 -260z m108 3 l-3 -258 -32 -3 -33 -3 0 260 0 261 35 0 35 0 -2 -257z m102 -3 l0 -260 -30 0 -30 0 0 260 0 260 30 0 30 0 0 -260z m110 -1 l0 -260 -32 3 -33 3 -3 258 -2 257 35 0 35 0 0 -261z m108 4 l-3 -258 -32 -3 -33 -3 0 260 0 261 35 0 35 0 -2 -257z m102 -3 l0 -260 -30 0 -30 0 0 260 0 260 30 0 30 0 0 -260z m60 -1 c0 -171 -3 -258 -10 -254 -6 4 -10 102 -10 261 0 163 4 254 10 254 6 0 10 -94 10 -261z m3450 1 c0 -253 -1 -260 -20 -260 -19 0 -20 7 -20 260 0 253 1 260 20 260 19 0 20 -7 20 -260z m80 0 c0 -253 -1 -260 -20 -260 -19 0 -20 7 -20 260 0 253 1 260 20 260 19 0 20 -7 20 -260z m82 0 c-3 -251 -3 -260 -22 -260 -19 0 -20 8 -20 260 l0 260 23 0 22 0 -3 -260z m88 0 c0 -253 -1 -260 -20 -260 -19 0 -20 7 -20 260 0 253 1 260 20 260 19 0 20 -7 20 -260z m80 0 c0 -253 -1 -260 -20 -260 -19 0 -20 7 -20 260 0 253 1 260 20 260 19 0 20 -7 20 -260z m80 -1 c0 -243 -1 -260 -17 -257 -17 3 -18 25 -21 261 -2 252 -2 257 18 257 20 0 20 -6 20 -261z m90 1 c0 -253 -1 -260 -20 -260 -19 0 -20 7 -20 260 0 253 1 260 20 260 19 0 20 -7 20 -260z m68 3 c-2 -194 -6 -257 -15 -261 -10 -3 -13 53 -13 257 0 227 2 261 15 261 13 0 15 -33 13 -257z m-2320 -483 l2665 0 -77 -55 -76 -55 -1341 0 c-737 0 -1345 -2 -1350 -5 -18 -12 -8 -37 89 -222 517 -988 770 -1769 832 -2567 13 -158 33 -235 87 -324 119 -195 356 -340 708 -432 l110 -29 -1695 0 -1695 0 150 33 c421 93 700 193 837 301 282 221 393 744 288 1345 -52 295 -166 596 -401 1060 -91 181 -257 484 -291 533 l-19 27 -313 0 -313 0 -249 140 -249 140 -325 0 -325 0 -37 54 c-21 30 -38 58 -38 62 0 4 82 4 182 1 99 -4 1380 -7 2846 -7z m2572 -460 l0 -300 -405 0 -405 0 0 88 0 88 146 207 145 207 252 3 c139 1 255 3 260 5 4 1 7 -133 7 -298z m-2032 282 c-6 -16 -363 -521 -368 -521 -4 -1 -246 470 -268 521 -2 5 141 8 318 8 177 0 320 -4 318 -8z m315 -4 c-5 -7 -130 -194 -277 -416 -147 -222 -270 -401 -273 -398 -3 2 -27 53 -54 112 l-49 108 32 46 c18 26 114 162 213 303 l180 256 119 1 c93 0 116 -3 109 -12z m817 6 c0 -5 -1080 -1474 -1105 -1502 -1 -1 -26 64 -55 145 -29 82 -79 214 -111 296 -33 81 -59 152 -59 157 0 6 135 213 300 460 l300 450 365 0 c201 0 365 -3 365 -6z m250 -66 c-28 -40 -75 -106 -103 -147 l-52 -73 -3 92 c-2 80 -5 91 -20 88 -15 -3 -18 -21 -22 -128 l-5 -125 -525 -743 c-319 -451 -527 -737 -531 -730 -4 7 -21 66 -39 131 -22 79 -29 121 -23 130 6 6 239 323 518 702 280 380 539 732 577 783 l68 92 106 0 105 0 -51 -72z m648 -785 l-3 -228 -402 -3 -403 -2 0 230 0 230 405 0 405 0 -2 -227z m0 -500 l-3 -228 -402 -3 -403 -2 0 230 0 230 405 0 405 0 -2 -227z m2 -498 l0 -225 -405 0 -405 0 0 225 0 225 405 0 405 0 0 -225z"/>
    <path d="M11124 11241 c3 -26 295 -564 321 -590 7 -7 20 -11 29 -8 8 3 54 82 100 175 69 138 83 172 73 185 -17 21 -452 248 -493 257 -32 7 -33 6 -30 -19z m431 -258 c19 -11 18 -15 -35 -122 -30 -61 -58 -107 -62 -103 -5 6 -154 270 -207 370 -10 18 17 7 136 -55 81 -43 157 -83 168 -90z"/>
    <path d="M11581 10453 c-12 -22 6 -57 47 -96 37 -35 90 -45 133 -23 38 19 75 21 85 4 4 -7 10 -28 14 -48 4 -29 10 -35 30 -35 64 0 40 111 -32 150 -36 19 -39 19 -87 2 -71 -25 -85 -22 -121 23 -34 43 -54 50 -69 23z"/>
    <path d="M9913 10216 c-19 -16 -46 -25 -83 -29 -81 -9 -137 -22 -156 -38 -34 -28 10 -247 53 -263 10 -4 27 3 44 20 23 22 39 27 99 32 64 4 73 8 91 33 31 44 55 53 100 39 32 -11 42 -11 62 3 30 19 77 111 77 149 0 23 -4 28 -24 28 -14 0 -28 -4 -31 -10 -12 -19 -52 -10 -101 25 -57 41 -92 44 -131 11z m101 -71 c18 -14 47 -30 65 -36 25 -9 29 -14 21 -25 -9 -10 -17 -10 -36 -2 -35 16 -96 -5 -136 -46 -28 -29 -42 -35 -88 -38 -30 -2 -63 -8 -72 -12 -19 -9 -31 12 -43 76 l-7 34 61 17 c45 13 67 14 87 7 29 -11 70 7 81 36 8 21 30 17 67 -11z"/>
    <path d="M12942 9527 c-49 -49 -60 -65 -50 -75 8 -8 58 -12 164 -12 159 0 184 3 184 26 0 13 -196 124 -221 124 -8 0 -43 -28 -77 -63z m143 -12 l40 -25 -79 0 -79 0 23 25 c29 31 44 31 95 0z"/>
    <path d="M12775 8528 c-3 -7 -4 -215 -3 -463 l3 -450 230 0 230 0 3 63 c3 71 -13 89 -49 56 -17 -15 -41 -20 -125 -22 l-104 -4 0 289 0 288 73 78 c39 43 76 77 80 77 4 0 33 -19 63 -42 37 -27 58 -38 65 -31 5 5 9 45 7 89 l-3 79 -233 3 c-181 2 -234 0 -237 -10z m246 -117 c-39 -43 -77 -84 -86 -91 -10 -9 -15 -31 -15 -76 l0 -64 -55 0 -55 0 0 155 0 155 141 0 141 0 -71 -79z m189 48 c0 -24 -3 -29 -12 -22 -7 5 -26 19 -42 31 l-29 22 42 0 c39 0 41 -1 41 -31z m-290 -574 l0 -215 114 0 c63 0 126 4 140 10 20 7 26 6 26 -4 0 -19 -112 -29 -265 -23 l-120 5 -3 221 -2 221 55 0 55 0 0 -215z"/>
    <path d="M13305 8528 c-3 -7 -4 -215 -3 -463 l3 -450 315 0 315 0 0 460 0 460 -313 3 c-245 2 -314 0 -317 -10z m180 -101 c-38 -34 -85 -76 -102 -93 l-33 -32 0 -304 c0 -223 3 -307 12 -316 15 -15 394 -17 403 -2 3 5 6 148 5 317 l0 308 -93 93 -92 92 158 0 157 0 -2 -417 c-3 -391 -4 -418 -20 -417 -10 1 -135 2 -278 3 l-260 1 0 415 0 415 108 0 107 0 -70 -63z m167 -64 l78 -78 0 -285 0 -285 -165 0 -165 0 0 290 0 290 82 73 c44 39 84 72 87 72 3 0 41 -35 83 -77z"/>
    <path d="M11575 8408 c-2 -13 -4 -223 -2 -468 l2 -445 285 0 285 0 0 465 0 465 -282 3 -283 2 -5 -22z m418 -25 c-67 -2 -179 -2 -250 0 -70 1 -15 3 122 3 138 0 195 -2 128 -3z m49 -418 l-2 -375 -180 0 -180 0 -2 375 -3 375 185 0 185 0 -3 -375z m-402 -44 c0 -327 2 -370 16 -375 9 -3 100 -6 204 -6 104 0 195 3 204 6 14 5 16 48 16 375 0 323 2 369 15 369 13 0 15 -46 13 -377 l-3 -378 -241 -3 c-224 -2 -242 -1 -245 15 -9 41 2 743 11 743 6 0 10 -136 10 -369z"/>
  </g>
</svg>